<?xml version="1.0" standalone="no"?>
<!DOCTYPE svg PUBLIC "-//W3C//DTD SVG 20010904//EN"
 "http://www.w3.org/TR/2001/REC-SVG-20010904/DTD/svg10.dtd">
<svg version="1.0" xmlns="http://www.w3.org/2000/svg"
 width="50.000000pt" height="50.000000pt" viewBox="0 0 200.000000 200.000000"
 preserveAspectRatio="xMidYMid meet">

<g transform="translate(0.000000,200.000000) scale(0.100000,-0.100000)"
fill="#ffffff" stroke="none">
<path fill="#5e16ec" d="M1495 1726 c-26 -21 -30 -31 -30 -71 0 -39 5 -51 28 -71 67 -58 177
-12 177 73 0 21 -6 45 -13 54 -35 45 -115 53 -162 15z"/>
<path d="M660 1414 c-252 -54 -391 -241 -378 -509 6 -119 29 -187 92 -272 48
-65 125 -123 206 -154 70 -27 228 -37 308 -19 174 38 319 172 358 333 l6 27
-90 0 -89 0 -17 -44 c-24 -61 -107 -138 -175 -161 -120 -39 -265 -4 -345 85
-64 71 -80 120 -81 235 0 126 22 182 101 254 64 59 124 81 215 81 129 0 242
-70 286 -176 l18 -44 89 0 88 0 -6 28 c-15 64 -77 170 -126 216 -86 80 -238
138 -360 135 -19 0 -64 -7 -100 -15z"/>
<path fill="#5e16ec" d="M1480 940 l0 -480 85 0 85 0 0 480 0 480 -85 0 -85 0 0 -480z"/>
</g>
</svg>
